<svg width="913" height="909" viewBox="0 0 913 909" fill="none" xmlns="http://www.w3.org/2000/svg">
<g filter="url(#filter0_d_80411_82)">
<g filter="url(#filter1_d_80411_82)">
<path d="M676.564 215.658C621.246 158.47 543.582 127.431 460.658 129.369C377.734 131.307 296.343 166.064 234.39 225.992C172.436 285.921 134.996 366.112 130.304 448.926C125.613 531.74 154.055 610.391 209.373 667.579L442.969 441.619L676.564 215.658Z" fill="#93C5FD"/>
</g>
<g filter="url(#filter2_d_80411_82)">
<path d="M235.492 692.239C290.522 749.704 368.029 781.133 450.961 779.612C533.894 778.091 615.459 743.745 677.713 684.129C739.966 624.513 777.81 544.51 782.918 461.721C788.026 378.932 759.98 300.138 704.95 242.673L470.221 467.456L235.492 692.239Z" fill="#FDE047"/>
</g>
</g>
<defs>
<filter id="filter0_d_80411_82" x="125.804" y="129.284" width="661.707" height="658.381" filterUnits="userSpaceOnUse" color-interpolation-filters="sRGB">
<feFlood flood-opacity="0" result="BackgroundImageFix"/>
<feColorMatrix in="SourceAlpha" type="matrix" values="0 0 0 0 0 0 0 0 0 0 0 0 0 0 0 0 0 0 127 0" result="hardAlpha"/>
<feOffset dy="4"/>
<feGaussianBlur stdDeviation="2"/>
<feComposite in2="hardAlpha" operator="out"/>
<feColorMatrix type="matrix" values="0 0 0 0 0 0 0 0 0 0 0 0 0 0 0 0 0 0 0.25 0"/>
<feBlend mode="normal" in2="BackgroundImageFix" result="effect1_dropShadow_80411_82"/>
<feBlend mode="normal" in="SourceGraphic" in2="effect1_dropShadow_80411_82" result="shape"/>
</filter>
<filter id="filter1_d_80411_82" x="125.804" y="129.284" width="554.76" height="546.295" filterUnits="userSpaceOnUse" color-interpolation-filters="sRGB">
<feFlood flood-opacity="0" result="BackgroundImageFix"/>
<feColorMatrix in="SourceAlpha" type="matrix" values="0 0 0 0 0 0 0 0 0 0 0 0 0 0 0 0 0 0 127 0" result="hardAlpha"/>
<feOffset dy="4"/>
<feGaussianBlur stdDeviation="2"/>
<feComposite in2="hardAlpha" operator="out"/>
<feColorMatrix type="matrix" values="0 0 0 0 0 0 0 0 0 0 0 0 0 0 0 0 0 0 0.25 0"/>
<feBlend mode="normal" in2="BackgroundImageFix" result="effect1_dropShadow_80411_82"/>
<feBlend mode="normal" in="SourceGraphic" in2="effect1_dropShadow_80411_82" result="shape"/>
</filter>
<filter id="filter2_d_80411_82" x="231.492" y="242.673" width="556.019" height="544.992" filterUnits="userSpaceOnUse" color-interpolation-filters="sRGB">
<feFlood flood-opacity="0" result="BackgroundImageFix"/>
<feColorMatrix in="SourceAlpha" type="matrix" values="0 0 0 0 0 0 0 0 0 0 0 0 0 0 0 0 0 0 127 0" result="hardAlpha"/>
<feOffset dy="4"/>
<feGaussianBlur stdDeviation="2"/>
<feComposite in2="hardAlpha" operator="out"/>
<feColorMatrix type="matrix" values="0 0 0 0 0 0 0 0 0 0 0 0 0 0 0 0 0 0 0.25 0"/>
<feBlend mode="normal" in2="BackgroundImageFix" result="effect1_dropShadow_80411_82"/>
<feBlend mode="normal" in="SourceGraphic" in2="effect1_dropShadow_80411_82" result="shape"/>
</filter>
</defs>
</svg>
